<mxfile host="app.diagrams.net" modified="2020-06-25T19:19:31.532Z" agent="5.0 (Windows NT 6.1; Win64; x64) AppleWebKit/537.36 (KHTML, like Gecko) Chrome/83.0.4103.116 Safari/537.36" etag="_nLF1rw4_gh2-nyV3j1m" version="13.3.4" type="github">
  <diagram id="YBWVYPmLeSRwuI61tk2d" name="Page-1">
    <mxGraphModel dx="3270" dy="1230" grid="1" gridSize="10" guides="1" tooltips="1" connect="1" arrows="1" fold="1" page="1" pageScale="1" pageWidth="1100" pageHeight="1700" math="0" shadow="0">
      <root>
        <mxCell id="0" />
        <mxCell id="1" parent="0" />
        <mxCell id="YBXRsWnwAlxHhVe6IXgZ-6" value="" style="edgeStyle=orthogonalEdgeStyle;rounded=0;orthogonalLoop=1;jettySize=auto;html=1;" parent="1" source="YBXRsWnwAlxHhVe6IXgZ-1" target="YBXRsWnwAlxHhVe6IXgZ-3" edge="1">
          <mxGeometry relative="1" as="geometry" />
        </mxCell>
        <mxCell id="YBXRsWnwAlxHhVe6IXgZ-1" value="&lt;font style=&quot;font-size: 24px&quot;&gt;เริ่ม&lt;/font&gt;" style="ellipse;whiteSpace=wrap;html=1;" parent="1" vertex="1">
          <mxGeometry x="388" y="480" width="120" height="80" as="geometry" />
        </mxCell>
        <mxCell id="YBXRsWnwAlxHhVe6IXgZ-9" value="" style="edgeStyle=orthogonalEdgeStyle;rounded=0;orthogonalLoop=1;jettySize=auto;html=1;" parent="1" source="YBXRsWnwAlxHhVe6IXgZ-3" target="YBXRsWnwAlxHhVe6IXgZ-8" edge="1">
          <mxGeometry relative="1" as="geometry" />
        </mxCell>
        <mxCell id="YBXRsWnwAlxHhVe6IXgZ-41" style="edgeStyle=orthogonalEdgeStyle;rounded=0;orthogonalLoop=1;jettySize=auto;html=1;entryX=0.5;entryY=0;entryDx=0;entryDy=0;" parent="1" source="YBXRsWnwAlxHhVe6IXgZ-3" target="YBXRsWnwAlxHhVe6IXgZ-39" edge="1">
          <mxGeometry relative="1" as="geometry" />
        </mxCell>
        <mxCell id="YBXRsWnwAlxHhVe6IXgZ-3" value="&lt;span&gt;&lt;font style=&quot;font-size: 18px&quot;&gt;นำ size กระดาษมาด้านที่ยาวสุดมาเทียบ เช็คว่า ยาวกว่าเท่ากับ ด้านที่ยาวสุดของถุงกระดาษ จริง?&lt;/font&gt;&lt;/span&gt;" style="rhombus;whiteSpace=wrap;html=1;" parent="1" vertex="1">
          <mxGeometry x="48" y="610" width="800" height="200" as="geometry" />
        </mxCell>
        <mxCell id="YBXRsWnwAlxHhVe6IXgZ-11" value="" style="edgeStyle=orthogonalEdgeStyle;rounded=0;orthogonalLoop=1;jettySize=auto;html=1;" parent="1" source="YBXRsWnwAlxHhVe6IXgZ-8" target="YBXRsWnwAlxHhVe6IXgZ-10" edge="1">
          <mxGeometry relative="1" as="geometry" />
        </mxCell>
        <mxCell id="YBXRsWnwAlxHhVe6IXgZ-40" style="edgeStyle=orthogonalEdgeStyle;rounded=0;orthogonalLoop=1;jettySize=auto;html=1;entryX=0;entryY=0.5;entryDx=0;entryDy=0;" parent="1" source="YBXRsWnwAlxHhVe6IXgZ-8" target="YBXRsWnwAlxHhVe6IXgZ-39" edge="1">
          <mxGeometry relative="1" as="geometry">
            <Array as="points">
              <mxPoint x="1343" y="990" />
            </Array>
          </mxGeometry>
        </mxCell>
        <mxCell id="YBXRsWnwAlxHhVe6IXgZ-8" value="&lt;span&gt;&lt;font style=&quot;font-size: 17px&quot;&gt;นำ size กระดาษมาด้านที่สั้นสุดมาเทียบ เช็คว่า ยาวกว่าเท่ากับ ด้านที่สั้นสุดของถุงกระดาษ จริง?&lt;/font&gt;&lt;/span&gt;" style="rhombus;whiteSpace=wrap;html=1;" parent="1" vertex="1">
          <mxGeometry x="103" y="850" width="690" height="280" as="geometry" />
        </mxCell>
        <mxCell id="YBXRsWnwAlxHhVe6IXgZ-23" style="edgeStyle=orthogonalEdgeStyle;rounded=0;orthogonalLoop=1;jettySize=auto;html=1;entryX=0.5;entryY=0;entryDx=0;entryDy=0;exitX=1;exitY=0.5;exitDx=0;exitDy=0;" parent="1" source="YBXRsWnwAlxHhVe6IXgZ-10" target="YBXRsWnwAlxHhVe6IXgZ-22" edge="1">
          <mxGeometry relative="1" as="geometry" />
        </mxCell>
        <mxCell id="YBXRsWnwAlxHhVe6IXgZ-10" value="&lt;span&gt;&lt;font style=&quot;font-size: 19px&quot;&gt;เช็คว่าด้านที่ ยาวสุดของถุงกระดาษนั้น สั้นกว่าด้านที่สั้นสุดของกระดาษ?&lt;/font&gt;&lt;/span&gt;" style="rhombus;whiteSpace=wrap;html=1;" parent="1" vertex="1">
          <mxGeometry x="143" y="1230" width="610" height="280" as="geometry" />
        </mxCell>
        <mxCell id="YBXRsWnwAlxHhVe6IXgZ-12" value="&lt;font style=&quot;font-size: 23px&quot;&gt;นำด้านที่สั้นสุดของ กระดาษ มาหาร ด้วยด้านที่สั้นสุดของ ถุงกระดาษ แล้วทำเป็นจำนวนเต็ม&lt;br&gt;ปัดเศษ ทศนิยมทิ้ง&lt;/font&gt;" style="shape=process;whiteSpace=wrap;html=1;backgroundOutline=1;" parent="1" vertex="1">
          <mxGeometry x="-397" y="1670" width="560" height="170" as="geometry" />
        </mxCell>
        <mxCell id="YBXRsWnwAlxHhVe6IXgZ-13" value="&lt;font style=&quot;font-size: 22px&quot;&gt;TRUE&lt;/font&gt;" style="text;html=1;strokeColor=none;fillColor=none;align=center;verticalAlign=middle;whiteSpace=wrap;rounded=0;" parent="1" vertex="1">
          <mxGeometry x="348" y="830" width="40" height="20" as="geometry" />
        </mxCell>
        <mxCell id="YBXRsWnwAlxHhVe6IXgZ-17" value="" style="endArrow=classic;html=1;exitX=0;exitY=0.5;exitDx=0;exitDy=0;entryX=0.5;entryY=0;entryDx=0;entryDy=0;" parent="1" source="YBXRsWnwAlxHhVe6IXgZ-10" target="YBXRsWnwAlxHhVe6IXgZ-12" edge="1">
          <mxGeometry width="50" height="50" relative="1" as="geometry">
            <mxPoint x="13" y="1410" as="sourcePoint" />
            <mxPoint x="63" y="1360" as="targetPoint" />
            <Array as="points">
              <mxPoint x="-117" y="1370" />
              <mxPoint x="-117" y="1400" />
            </Array>
          </mxGeometry>
        </mxCell>
        <mxCell id="YBXRsWnwAlxHhVe6IXgZ-20" value="&lt;font style=&quot;font-size: 22px&quot;&gt;TRUE&lt;/font&gt;" style="text;html=1;strokeColor=none;fillColor=none;align=center;verticalAlign=middle;whiteSpace=wrap;rounded=0;" parent="1" vertex="1">
          <mxGeometry x="348" y="1170" width="40" height="20" as="geometry" />
        </mxCell>
        <mxCell id="YBXRsWnwAlxHhVe6IXgZ-21" value="&lt;font style=&quot;font-size: 22px&quot;&gt;TRUE&lt;/font&gt;" style="text;html=1;strokeColor=none;fillColor=none;align=center;verticalAlign=middle;whiteSpace=wrap;rounded=0;" parent="1" vertex="1">
          <mxGeometry x="-217" y="1510" width="40" height="20" as="geometry" />
        </mxCell>
        <mxCell id="YBXRsWnwAlxHhVe6IXgZ-28" style="edgeStyle=orthogonalEdgeStyle;rounded=0;orthogonalLoop=1;jettySize=auto;html=1;entryX=1;entryY=0.5;entryDx=0;entryDy=0;" parent="1" source="YBXRsWnwAlxHhVe6IXgZ-22" target="YBXRsWnwAlxHhVe6IXgZ-26" edge="1">
          <mxGeometry relative="1" as="geometry">
            <Array as="points">
              <mxPoint x="993" y="1990" />
            </Array>
          </mxGeometry>
        </mxCell>
        <mxCell id="YBXRsWnwAlxHhVe6IXgZ-22" value="&lt;font style=&quot;font-size: 23px&quot;&gt;นำด้านที่ยาวสุดของ กระดาษ มาหาร ด้วยด้านที่ยาวสุดของ ถุงกระดาษ แล้วทำเป็นจำนวนเต็ม ปัดเศษ ทศนิยมทิ้ง&lt;/font&gt;" style="shape=process;whiteSpace=wrap;html=1;backgroundOutline=1;" parent="1" vertex="1">
          <mxGeometry x="713" y="1670" width="560" height="170" as="geometry" />
        </mxCell>
        <mxCell id="YBXRsWnwAlxHhVe6IXgZ-24" value="&lt;font style=&quot;font-size: 22px&quot;&gt;FALSE&lt;/font&gt;" style="text;html=1;strokeColor=none;fillColor=none;align=center;verticalAlign=middle;whiteSpace=wrap;rounded=0;" parent="1" vertex="1">
          <mxGeometry x="1083" y="1500" width="40" height="20" as="geometry" />
        </mxCell>
        <mxCell id="YBXRsWnwAlxHhVe6IXgZ-57" style="edgeStyle=orthogonalEdgeStyle;rounded=0;orthogonalLoop=1;jettySize=auto;html=1;entryX=0.5;entryY=0;entryDx=0;entryDy=0;" parent="1" source="YBXRsWnwAlxHhVe6IXgZ-25" target="YBXRsWnwAlxHhVe6IXgZ-56" edge="1">
          <mxGeometry relative="1" as="geometry" />
        </mxCell>
        <mxCell id="YBXRsWnwAlxHhVe6IXgZ-25" value="&lt;font style=&quot;font-size: 27px&quot;&gt;จะได้จำนวนของ ถุงกระดาษ ที่ผลิตจาก กระดาษ ชิ้นนั้น&lt;/font&gt;" style="shape=parallelogram;perimeter=parallelogramPerimeter;whiteSpace=wrap;html=1;" parent="1" vertex="1">
          <mxGeometry x="10.5" y="2120" width="825" height="210" as="geometry" />
        </mxCell>
        <mxCell id="YBXRsWnwAlxHhVe6IXgZ-35" style="edgeStyle=orthogonalEdgeStyle;rounded=0;orthogonalLoop=1;jettySize=auto;html=1;exitX=0.5;exitY=1;exitDx=0;exitDy=0;" parent="1" source="YBXRsWnwAlxHhVe6IXgZ-26" target="YBXRsWnwAlxHhVe6IXgZ-25" edge="1">
          <mxGeometry relative="1" as="geometry" />
        </mxCell>
        <mxCell id="YBXRsWnwAlxHhVe6IXgZ-26" value="" style="ellipse;whiteSpace=wrap;html=1;aspect=fixed;" parent="1" vertex="1">
          <mxGeometry x="393" y="1960" width="60" height="60" as="geometry" />
        </mxCell>
        <mxCell id="YBXRsWnwAlxHhVe6IXgZ-27" value="" style="endArrow=classic;html=1;exitX=0.5;exitY=1;exitDx=0;exitDy=0;entryX=0;entryY=0.5;entryDx=0;entryDy=0;" parent="1" source="YBXRsWnwAlxHhVe6IXgZ-12" target="YBXRsWnwAlxHhVe6IXgZ-26" edge="1">
          <mxGeometry width="50" height="50" relative="1" as="geometry">
            <mxPoint x="-247" y="2100" as="sourcePoint" />
            <mxPoint x="-197" y="2050" as="targetPoint" />
            <Array as="points">
              <mxPoint x="-117" y="1990" />
            </Array>
          </mxGeometry>
        </mxCell>
        <mxCell id="YBXRsWnwAlxHhVe6IXgZ-32" value="&lt;font style=&quot;font-size: 24px&quot;&gt;สิ้นสุด&lt;/font&gt;" style="ellipse;whiteSpace=wrap;html=1;" parent="1" vertex="1">
          <mxGeometry x="363" y="2870" width="120" height="80" as="geometry" />
        </mxCell>
        <mxCell id="YBXRsWnwAlxHhVe6IXgZ-42" style="edgeStyle=orthogonalEdgeStyle;rounded=0;orthogonalLoop=1;jettySize=auto;html=1;" parent="1" source="YBXRsWnwAlxHhVe6IXgZ-39" edge="1">
          <mxGeometry relative="1" as="geometry">
            <mxPoint x="453" y="2750" as="targetPoint" />
            <Array as="points">
              <mxPoint x="2133" y="1000" />
              <mxPoint x="2133" y="2540" />
              <mxPoint x="553" y="2540" />
              <mxPoint x="553" y="2750" />
            </Array>
          </mxGeometry>
        </mxCell>
        <mxCell id="YBXRsWnwAlxHhVe6IXgZ-39" value="" style="ellipse;whiteSpace=wrap;html=1;aspect=fixed;" parent="1" vertex="1">
          <mxGeometry x="1343" y="950" width="80" height="80" as="geometry" />
        </mxCell>
        <mxCell id="YBXRsWnwAlxHhVe6IXgZ-43" value="" style="whiteSpace=wrap;html=1;aspect=fixed;" parent="1" vertex="1">
          <mxGeometry x="1613" y="1720" width="420" height="420" as="geometry" />
        </mxCell>
        <mxCell id="YBXRsWnwAlxHhVe6IXgZ-44" value="&lt;font style=&quot;font-size: 40px&quot;&gt;ถุงกระดาษ&lt;/font&gt;" style="shape=note;whiteSpace=wrap;html=1;backgroundOutline=1;darkOpacity=0.05;fillColor=#dae8fc;strokeColor=#6c8ebf;" parent="1" vertex="1">
          <mxGeometry x="1613" y="1720" width="310" height="370" as="geometry" />
        </mxCell>
        <mxCell id="YBXRsWnwAlxHhVe6IXgZ-45" value="&lt;span style=&quot;font-size: 40px&quot;&gt;กระดาษ&lt;/span&gt;" style="text;html=1;strokeColor=none;fillColor=none;align=center;verticalAlign=middle;whiteSpace=wrap;rounded=0;" parent="1" vertex="1">
          <mxGeometry x="1823" y="2100" width="40" height="20" as="geometry" />
        </mxCell>
        <mxCell id="YBXRsWnwAlxHhVe6IXgZ-46" value="" style="endArrow=none;dashed=1;html=1;exitX=1;exitY=0.5;exitDx=0;exitDy=0;" parent="1" source="YBXRsWnwAlxHhVe6IXgZ-22" edge="1">
          <mxGeometry width="50" height="50" relative="1" as="geometry">
            <mxPoint x="1453" y="1880" as="sourcePoint" />
            <mxPoint x="1613" y="1650" as="targetPoint" />
            <Array as="points">
              <mxPoint x="1473" y="1755" />
              <mxPoint x="1473" y="1650" />
            </Array>
          </mxGeometry>
        </mxCell>
        <mxCell id="YBXRsWnwAlxHhVe6IXgZ-47" value="&lt;font style=&quot;font-size: 39px&quot;&gt;ตัวอย่าง:&lt;/font&gt;" style="text;html=1;strokeColor=none;fillColor=none;align=center;verticalAlign=middle;whiteSpace=wrap;rounded=0;" parent="1" vertex="1">
          <mxGeometry x="1673" y="1640" width="40" height="20" as="geometry" />
        </mxCell>
        <mxCell id="YBXRsWnwAlxHhVe6IXgZ-49" value="" style="whiteSpace=wrap;html=1;aspect=fixed;" parent="1" vertex="1">
          <mxGeometry x="-1032" y="1860" width="450" height="450" as="geometry" />
        </mxCell>
        <mxCell id="YBXRsWnwAlxHhVe6IXgZ-50" value="&lt;span style=&quot;font-size: 40px&quot;&gt;ถุงกระดาษ&lt;/span&gt;" style="shape=note;whiteSpace=wrap;html=1;backgroundOutline=1;darkOpacity=0.05;direction=south;fillColor=#dae8fc;strokeColor=#6c8ebf;" parent="1" vertex="1">
          <mxGeometry x="-1027" y="1860" width="440" height="290" as="geometry" />
        </mxCell>
        <mxCell id="YBXRsWnwAlxHhVe6IXgZ-51" value="&lt;span style=&quot;font-size: 40px&quot;&gt;กระดาษ&lt;/span&gt;" style="text;html=1;strokeColor=none;fillColor=none;align=center;verticalAlign=middle;whiteSpace=wrap;rounded=0;" parent="1" vertex="1">
          <mxGeometry x="-827" y="2200" width="40" height="20" as="geometry" />
        </mxCell>
        <mxCell id="YBXRsWnwAlxHhVe6IXgZ-52" value="&lt;span style=&quot;color: rgb(0, 0, 0); font-family: helvetica; font-size: 39px; font-style: normal; font-weight: 400; letter-spacing: normal; text-align: center; text-indent: 0px; text-transform: none; word-spacing: 0px; background-color: rgb(248, 249, 250); display: inline; float: none;&quot;&gt;ตัวอย่าง:&lt;/span&gt;" style="text;whiteSpace=wrap;html=1;" parent="1" vertex="1">
          <mxGeometry x="-867" y="1720" width="160" height="40" as="geometry" />
        </mxCell>
        <mxCell id="YBXRsWnwAlxHhVe6IXgZ-55" value="" style="endArrow=none;dashed=1;html=1;entryX=0;entryY=0.5;entryDx=0;entryDy=0;" parent="1" target="YBXRsWnwAlxHhVe6IXgZ-12" edge="1">
          <mxGeometry width="50" height="50" relative="1" as="geometry">
            <mxPoint x="-707" y="1755" as="sourcePoint" />
            <mxPoint x="-607" y="1650" as="targetPoint" />
          </mxGeometry>
        </mxCell>
        <mxCell id="YBXRsWnwAlxHhVe6IXgZ-59" value="" style="edgeStyle=orthogonalEdgeStyle;rounded=0;orthogonalLoop=1;jettySize=auto;html=1;" parent="1" source="YBXRsWnwAlxHhVe6IXgZ-56" edge="1">
          <mxGeometry relative="1" as="geometry">
            <mxPoint x="423" y="2870" as="targetPoint" />
          </mxGeometry>
        </mxCell>
        <mxCell id="YBXRsWnwAlxHhVe6IXgZ-56" value="" style="ellipse;whiteSpace=wrap;html=1;aspect=fixed;" parent="1" vertex="1">
          <mxGeometry x="393" y="2730" width="60" height="60" as="geometry" />
        </mxCell>
        <mxCell id="VVT0aFdjz3h0jSFO-QEv-1" value="&lt;font style=&quot;font-size: 22px&quot;&gt;FALSE&lt;/font&gt;" style="text;html=1;strokeColor=none;fillColor=none;align=center;verticalAlign=middle;whiteSpace=wrap;rounded=0;" parent="1" vertex="1">
          <mxGeometry x="1083" y="920" width="40" height="20" as="geometry" />
        </mxCell>
        <mxCell id="VVT0aFdjz3h0jSFO-QEv-2" value="&lt;font style=&quot;font-size: 22px&quot;&gt;FALSE&lt;/font&gt;" style="text;html=1;strokeColor=none;fillColor=none;align=center;verticalAlign=middle;whiteSpace=wrap;rounded=0;" parent="1" vertex="1">
          <mxGeometry x="1093" y="640" width="40" height="20" as="geometry" />
        </mxCell>
      </root>
    </mxGraphModel>
  </diagram>
</mxfile>
